<svg width="157" height="37" viewBox="0 0 157 37" fill="none" xmlns="http://www.w3.org/2000/svg">
<path d="M147.05 22.4707V12.2707H143.525V8.89624H147.05V2.91429H150.811V8.89624H155.668V12.2707H150.811V22.2406C150.811 24.4647 151.751 25.385 153.475 25.385C154.18 25.385 154.65 25.3083 155.198 25.0782L156.53 28.2226C155.668 28.606 154.806 28.7594 153.553 28.7594C149.244 28.7594 147.05 26.4586 147.05 22.4707ZM122.921 18.7128C122.921 13.191 126.838 8.3594 132.635 8.3594C138.589 8.3594 142.35 12.4241 142.35 18.7128C142.35 19.0195 142.271 19.403 142.271 19.403H126.524C126.759 23.5444 129.737 25.7684 132.87 25.7684C135.064 25.7684 137.257 24.9248 138.276 22.394L141.566 23.7744C140.391 26.5353 137.493 29.0662 132.87 29.0662C126.995 29.0662 122.921 24.5414 122.921 18.7128ZM132.635 11.6571C129.893 11.6571 127.7 13.4977 126.916 16.3353H138.433C138.354 14.6481 136.866 11.6571 132.635 11.6571ZM104.667 25.6917H104.51V28.3759H100.906V0H104.667V8.97293L104.51 11.6571H104.667C105.842 9.89323 108.27 8.28271 111.483 8.28271C116.497 8.28271 120.962 12.7308 120.962 18.6361C120.962 24.5414 116.575 28.9895 111.483 28.9895C108.27 29.0662 105.763 27.5323 104.667 25.6917ZM117.123 18.7128C117.123 14.3414 114.146 11.6571 110.777 11.6571C107.487 11.6571 104.432 14.2647 104.432 18.7128C104.432 23.1609 107.409 25.7684 110.777 25.7684C114.146 25.6917 117.123 23.0842 117.123 18.7128ZM79.4401 22.5474C79.4401 18.0992 83.514 15.7218 88.1362 15.7218C90.7999 15.7218 92.7585 16.4887 93.5419 16.9489V16.412C93.5419 13.4977 91.1133 11.6571 88.3713 11.6571C86.3343 11.6571 84.2974 12.6541 83.5923 14.4947L80.1452 13.0376C80.8503 11.2737 83.2006 8.28271 88.2146 8.28271C93.0719 8.28271 97.0674 11.1203 97.0674 16.6421V28.3759H93.4636V25.6917H93.3069C92.2101 27.3023 90.1732 29.0662 86.8044 29.0662C82.8089 29.0662 79.4401 26.612 79.4401 22.5474ZM93.5419 20.0165C93.5419 20.0165 91.9751 18.7128 88.763 18.7128C84.8458 18.7128 83.279 20.7835 83.279 22.5474C83.279 24.618 85.4726 25.615 87.4312 25.615C90.4082 25.6917 93.5419 23.2376 93.5419 20.0165ZM62.4396 8.97293L62.2829 11.6571H62.4396C63.4581 9.89323 66.0434 8.28271 68.7071 8.28271C73.7994 8.28271 76.3064 11.6571 76.3064 16.4887V28.3759H72.5459V17.0256C72.5459 12.9609 70.509 11.6571 67.6103 11.6571C64.3982 11.6571 62.3613 14.6481 62.3613 17.6391V28.3759H58.6008V0H62.3613L62.4396 8.97293ZM39.7201 25.6917H39.5634L39.7201 28.3759V36.9654H35.9596V8.97293H39.5634V11.6571H39.7201C40.8952 9.89323 43.3239 8.28271 46.5359 8.28271C51.5499 8.28271 56.0155 12.7308 56.0155 18.6361C56.0155 24.5414 51.5499 29.0662 46.4576 29.0662C43.3239 29.0662 40.8169 27.5323 39.7201 25.6917ZM52.1767 18.7128C52.1767 14.3414 49.1996 11.6571 45.8308 11.6571C42.5404 11.6571 39.485 14.2647 39.485 18.7128C39.485 23.1609 42.4621 25.7684 45.8308 25.7684C49.1996 25.6917 52.1767 23.0842 52.1767 18.7128ZM28.2819 28.4526H32.0424V0H28.2819V28.4526ZM10.9681 0L0 28.4526H4.1522L6.97256 20.7068H19.1941L22.0145 28.4526H26.0883L15.1203 0H10.9681ZM12.9266 4.44812H13.0833L17.8623 17.3323H8.22605L12.9266 4.44812Z" fill="#B4A6A2"/>
</svg>
