<svg width="26" height="23" fill="none" xmlns="http://www.w3.org/2000/svg"><path d="M6.153.043C3.504.307 1.22 2.105.376 4.593a6.502 6.502 0 0 0-.361 1.95c-.066 1.585.302 3.39 1.046 5.133 1.167 2.731 3.267 5.364 6.239 7.825 1.159.96 3.704 2.731 4.422 3.076a2.11 2.11 0 0 0 1.221.212c.522-.072.722-.179 2.282-1.222 4.889-3.268 8.066-6.941 9.437-10.907.62-1.793.824-3.8.534-5.232-.282-1.39-1.083-2.762-2.169-3.714C21.481.36 19.419-.231 17.434.111c-.671.116-1.481.422-2.194.829-.748.426-1.749 1.208-2.366 1.848l-.191.198-.416-.395C10.856 1.251 9.415.422 7.995.134A7.322 7.322 0 0 0 6.153.043m1.538 2.068c.748.166 1.416.505 2.31 1.172a12.153 12.153 0 0 1 1.757 1.688c.33.409.604.555.977.521.34-.031.475-.11.769-.454.373-.436 1.295-1.346 1.646-1.624 1.342-1.065 2.565-1.502 3.844-1.374a4.813 4.813 0 0 1 4.171 3.511c.091.329.117.538.136 1.082.038 1.087-.122 2.131-.503 3.283-1.039 3.149-3.513 6.208-7.285 9.007-1.078.801-2.71 1.877-2.845 1.877-.151 0-1.929-1.183-3.082-2.049-1.823-1.371-3.615-3.103-4.739-4.582a16.909 16.909 0 0 1-1.849-3.059c-.896-1.962-1.218-4.215-.806-5.635A4.829 4.829 0 0 1 5.66 2.148a4.738 4.738 0 0 1 2.031-.037" fill-rule="evenodd" fill="#000"/></svg>