<svg width="210mm" height="297mm" viewBox="0 0 210 297" xml:space="preserve" xmlns="http://www.w3.org/2000/svg"><path d="M390.366 555.989c-2.117 2.117-1.798 4.096 1.289 8.021 3.378 4.295 6.498 4.424 10.256.424 3.231-3.44 3.684-6.575 1.222-8.47-2.286-1.76-10.999-1.743-12.767.025m8.719.806c.874-.874 1.907-.605 3.073.799 1.502 1.81 1.234 2.632-1.851 5.678l-3.607 3.562-3.284-3.771c-2.553-2.933-2.947-4.176-1.77-5.594 1.048-1.263 2.221-1.444 3.817-.59 1.457.779 2.789.748 3.622-.084" fill-rule="evenodd" fill="#1a1a1a"/></svg>