<svg width="25" height="25" fill="none" xmlns="http://www.w3.org/2000/svg"><path d="M9.961.043C5.424.482 1.716 3.529.438 7.87.121 8.948.022 9.672.022 10.917c0 1.244.099 1.968.416 3.046.853 2.897 2.844 5.31 5.498 6.663a10.966 10.966 0 0 0 4.981 1.206c2.333 0 4.672-.776 6.511-2.16.248-.186.463-.339.48-.339.016 0 1.089 1.059 2.383 2.354 2.514 2.514 2.474 2.48 2.878 2.48.531 0 1.003-.482.995-1.018-.005-.385-.01-.392-2.488-2.897l-2.344-2.372.339-.45c1.619-2.152 2.389-4.949 2.101-7.638A10.901 10.901 0 0 0 12.515.126c-.666-.1-1.949-.141-2.554-.083m1.771 2.001a8.935 8.935 0 0 1 5.336 2.429c.771.734 1.328 1.495 1.823 2.487a8.908 8.908 0 0 1-1.103 9.631c-2.075 2.531-5.462 3.725-8.67 3.056a8.873 8.873 0 0 1-4.633-2.567 8.939 8.939 0 0 1-2.388-4.872c-.1-.656-.1-1.927 0-2.583.547-3.569 3.123-6.437 6.588-7.335a9.039 9.039 0 0 1 3.047-.246" fill-rule="evenodd" fill="#000"/></svg>